<svg width="100" height="100" viewBox="0 0 100 100" fill="none" xmlns="http://www.w3.org/2000/svg">
<path d="M90 0H10C4.47715 0 0 4.47715 0 10V90C0 95.5229 4.47715 100 10 100H90C95.5229 100 100 95.5229 100 90V10C100 4.47715 95.5229 0 90 0Z" fill="#1B1A1D"/>
<path d="M66.8965 35.7343C65.4408 33.1236 63.3333 31.1469 60.5747 29.8042C57.8928 28.3869 54.7126 27.6783 51.0344 27.6783C44.6744 27.6783 39.5787 29.7296 35.7471 33.8322C31.9157 37.8601 30 43.268 30 50.0559C30 57.2915 31.9924 62.9603 35.9771 67.0629C40.0385 71.0909 45.5939 73.1049 52.6436 73.1049C57.4712 73.1049 61.5327 71.9113 64.8276 69.5245C68.1994 67.1376 70.6514 63.7063 72.1839 59.2308L66.0345 56.1538L47.2413 45.1329H90V62.9231C88.5442 67.6971 86.0537 72.1351 82.5287 76.2378C79.0804 80.3404 74.6744 83.6596 69.3103 86.1958C63.9465 88.732 57.8928 90 51.1494 90C43.1801 90 36.0537 88.3217 29.7701 84.965C23.5632 81.5337 18.6973 76.7972 15.1724 70.7552C11.7242 64.7133 10 57.8134 10 50.0559C10 42.2985 11.7242 35.3986 15.1724 29.3566C18.6973 23.2401 23.5632 18.5035 29.7701 15.1469C35.977 11.7156 43.0652 10 51.0344 10C60.6896 10 68.8123 12.2751 75.4023 16.8252C82.069 21.3753 86.4753 27.6783 88.6207 35.7343H66.8965Z" fill="url(#paint0_linear_42_10)"/>
<defs>
<linearGradient id="paint0_linear_42_10" x1="79" y1="18.5" x2="0.500001" y2="95.5" gradientUnits="userSpaceOnUse">
<stop stop-color="#38AECC"/>
<stop offset="0.752068" stop-color="#022F40" stop-opacity="0"/>
<stop offset="0.947917" stop-color="#022F40" stop-opacity="0"/>
</linearGradient>
</defs>
</svg>
