<svg width="100" height="100" viewBox="0 0 100 100" fill="none" xmlns="http://www.w3.org/2000/svg">
<path d="M90 0H10C4.47715 0 0 4.47715 0 10V90C0 95.5229 4.47715 100 10 100H90C95.5229 100 100 95.5229 100 90V10C100 4.47715 95.5229 0 90 0Z" fill="url(#paint0_linear_37_29)"/>
<path d="M35.9053 67.1326L35.9066 67.1339C39.9909 71.1846 45.574 73.2049 52.6436 73.2049C57.488 73.2049 61.5709 72.007 64.8857 69.6058C68.2769 67.2051 70.7403 63.7554 72.2785 59.2632L72.3068 59.1805L72.2286 59.1413L66.0822 56.0659L47.6095 45.2329H89.9V62.9082C88.448 67.6624 85.9661 72.0836 82.4529 76.1726L82.4522 76.1734C79.0141 80.2639 74.6201 83.5747 69.2676 86.1054C63.9189 88.6345 57.88 89.9 51.1494 89.9C43.1948 89.9 36.0851 88.225 29.8179 84.8772C23.627 81.4545 18.7746 76.731 15.259 70.7053C11.8205 64.6802 10.1 57.7979 10.1 50.0559C10.1 42.3138 11.8206 35.4315 15.2592 29.4063C18.7749 23.3059 23.6272 18.5826 29.8177 15.2348L29.8185 15.2344C36.0089 11.8123 43.08 10.1 51.0344 10.1C60.6736 10.1 68.7754 12.3711 75.3455 16.9075L75.3459 16.9078C81.9574 21.4202 86.3387 27.6608 88.4903 35.6343H66.9551C65.4904 33.031 63.3776 31.0575 60.6199 29.715C57.9211 28.2892 54.7248 27.5783 51.0344 27.5783C44.6509 27.5783 39.5274 29.6382 35.6744 33.7636C31.8217 37.814 29.9 43.2485 29.9 50.0559C29.9 57.3103 31.898 63.0067 35.9053 67.1326Z" fill="url(#paint1_linear_37_29)" stroke="#33A0BC" stroke-width="0.2"/>
<defs>
<linearGradient id="paint0_linear_37_29" x1="50" y1="100" x2="50" y2="0" gradientUnits="userSpaceOnUse">
<stop stop-color="#36A9C7" stop-opacity="0.5"/>
<stop offset="0.447917" stop-color="#093F52" stop-opacity="0"/>
</linearGradient>
<linearGradient id="paint1_linear_37_29" x1="50" y1="10" x2="50" y2="90" gradientUnits="userSpaceOnUse">
<stop stop-color="#38AECC"/>
<stop offset="1" stop-color="#022F40" stop-opacity="0"/>
</linearGradient>
</defs>
</svg>
