<svg width="135" height="29" viewBox="0 0 135 29" fill="none" xmlns="http://www.w3.org/2000/svg">
<path d="M19.8 9.2C19.2934 8.26667 18.56 7.56 17.6 7.08C16.6667 6.57333 15.56 6.32 14.28 6.32C12.0667 6.32 10.2934 7.05333 8.96 8.52C7.62667 9.96 6.96 11.8933 6.96 14.32C6.96 16.9067 7.65334 18.9333 9.04 20.4C10.4534 21.84 12.3867 22.56 14.84 22.56C16.52 22.56 17.9334 22.1333 19.08 21.28C20.2534 20.4267 21.1067 19.2 21.64 17.6H12.96V12.56H27.84V18.92C27.3334 20.6267 26.4667 22.2133 25.24 23.68C24.04 25.1467 22.5067 26.3333 20.64 27.24C18.7734 28.1467 16.6667 28.6 14.32 28.6C11.5467 28.6 9.06667 28 6.88 26.8C4.72 25.5733 3.02667 23.88 1.8 21.72C0.599999 19.56 0 17.0933 0 14.32C0 11.5467 0.599999 9.08 1.8 6.92C3.02667 4.73333 4.72 3.04 6.88 1.84C9.04 0.613332 11.5067 0 14.28 0C17.64 0 20.4667 0.813332 22.76 2.44C25.08 4.06667 26.6134 6.32 27.36 9.2H19.8ZM38.4688 0.320001V28.4H31.6288V0.320001H38.4688ZM50.7057 22.8H62.7857V28.4H42.9457V23.2L54.9457 5.92H42.9457V0.320001H62.7857V5.52L50.7057 22.8ZM87.4538 0.320001V5.8H80.0138V28.4H73.1738V5.8H65.7338V0.320001H87.4538ZM97.7266 5.8V11.48H106.886V16.76H97.7266V22.92H108.086V28.4H90.8866V0.320001H108.086V5.8H97.7266ZM126.847 28.4L121.007 17.8H119.367V28.4H112.527V0.320001H124.007C126.22 0.320001 128.1 0.706672 129.647 1.48C131.22 2.25333 132.393 3.32 133.167 4.68C133.94 6.01333 134.327 7.50667 134.327 9.16C134.327 11.0267 133.793 12.6933 132.727 14.16C131.687 15.6267 130.14 16.6667 128.087 17.28L134.567 28.4H126.847ZM119.367 12.96H123.607C124.86 12.96 125.793 12.6533 126.407 12.04C127.047 11.4267 127.367 10.56 127.367 9.44C127.367 8.37333 127.047 7.53333 126.407 6.92C125.793 6.30667 124.86 6 123.607 6H119.367V12.96Z" fill="url(#paint0_linear_34_8)"/>
<defs>
<linearGradient id="paint0_linear_34_8" x1="-11" y1="7.50001" x2="151.5" y2="29" gradientUnits="userSpaceOnUse">
<stop stop-color="#38AECC"/>
<stop offset="1" stop-color="#022F40"/>
</linearGradient>
</defs>
</svg>
